<?xml version="1.0" encoding="UTF-8" standalone="no"?>
<!-- Created with Inkscape (http://www.inkscape.org/) -->

<svg
   width="256"
   height="256"
   viewBox="0 0 256 256"
   version="1.1"
   id="svg5"
   xml:space="preserve"
   inkscape:version="1.2.2 (732a01da63, 2022-12-09)"
   sodipodi:docname="logo_ocolours.svg"
   inkscape:export-filename="logo_ocolours.png"
   inkscape:export-xdpi="300"
   inkscape:export-ydpi="300"
   xmlns:inkscape="http://www.inkscape.org/namespaces/inkscape"
   xmlns:sodipodi="http://sodipodi.sourceforge.net/DTD/sodipodi-0.dtd"
   xmlns:xlink="http://www.w3.org/1999/xlink"
   xmlns="http://www.w3.org/2000/svg"
   xmlns:svg="http://www.w3.org/2000/svg"><sodipodi:namedview
     id="namedview7"
     pagecolor="#ffffff"
     bordercolor="#666666"
     borderopacity="1.0"
     inkscape:showpageshadow="2"
     inkscape:pageopacity="0.0"
     inkscape:pagecheckerboard="0"
     inkscape:deskcolor="#d1d1d1"
     inkscape:document-units="px"
     showgrid="true"
     inkscape:zoom="1.6819304"
     inkscape:cx="168.8536"
     inkscape:cy="266.95516"
     inkscape:window-width="1915"
     inkscape:window-height="2054"
     inkscape:window-x="7663"
     inkscape:window-y="0"
     inkscape:window-maximized="0"
     inkscape:current-layer="layer1"><inkscape:grid
       type="xygrid"
       id="grid132"
       empspacing="16" /></sodipodi:namedview><defs
     id="defs2"><linearGradient
       inkscape:collect="always"
       id="linearGradient4519"><stop
         style="stop-color:#949494;stop-opacity:1;"
         offset="0"
         id="stop4515" /><stop
         style="stop-color:#000000;stop-opacity:1;"
         offset="1"
         id="stop4517" /></linearGradient><linearGradient
       inkscape:collect="always"
       id="linearGradient3242"><stop
         style="stop-color:#949494;stop-opacity:1;"
         offset="0"
         id="stop3240" /><stop
         style="stop-color:#101010;stop-opacity:1;"
         offset="1"
         id="stop3238" /></linearGradient><linearGradient
       inkscape:collect="always"
       id="linearGradient17237"><stop
         style="stop-color:#f2b26d;stop-opacity:1;"
         offset="0"
         id="stop17233" /><stop
         style="stop-color:#fd7905;stop-opacity:1;"
         offset="1"
         id="stop17235" /></linearGradient><linearGradient
       inkscape:collect="always"
       xlink:href="#linearGradient17237"
       id="linearGradient21523"
       x1="128"
       y1="10"
       x2="246"
       y2="128"
       gradientUnits="userSpaceOnUse" /><filter
       inkscape:collect="always"
       style="color-interpolation-filters:sRGB"
       id="filter24639"
       x="-0.020666993"
       y="-0.021014337"
       width="1.041334"
       height="1.0420287"><feGaussianBlur
         inkscape:collect="always"
         stdDeviation="1.2"
         id="feGaussianBlur24641" /></filter><linearGradient
       inkscape:collect="always"
       xlink:href="#linearGradient4519"
       id="linearGradient3244"
       x1="116"
       y1="19"
       x2="119"
       y2="22"
       gradientUnits="userSpaceOnUse" /><linearGradient
       inkscape:collect="always"
       xlink:href="#linearGradient3242"
       id="linearGradient4450"
       x1="20"
       y1="152"
       x2="23"
       y2="155"
       gradientUnits="userSpaceOnUse" /></defs><g
     inkscape:label="Layer 1"
     inkscape:groupmode="layer"
     id="layer1"><path
       style="fill:none;fill-opacity:1;stroke:#000000;stroke-width:2.121;stroke-linecap:round;stroke-linejoin:round;stroke-dasharray:none;stroke-opacity:1"
       d="m 157,112 c -3,-9 -15,-25 -31,-25 -15,0 -19,4 -19,9 0,6 3.09768,11.561 31,18 26,6 39,20 39,36 0,16 -15,35 -42,35 -21,0 -34,-11 -34,-11 l -4,10 h -9 l -8,-44 16,-4 c 4.62759,13.72662 18,31 35,31 13,0 20,-4 20,-12 0,-7 -4,-12 -32,-19 -25.186364,-6.29659 -37,-15 -37,-35 0,-18 15,-33 44,-33 18,0 24,8 24,8 l 3,-6 h 9 l 10,38 z"
       id="path20394"
       sodipodi:nodetypes="cssssscccccsssssccccc" /><rect
       style="opacity:1;fill:none;fill-opacity:1;fill-rule:evenodd;stroke:#000000;stroke-width:2.12132034;stroke-linecap:round;stroke-linejoin:round;stroke-miterlimit:4.5;stroke-dasharray:none;stroke-opacity:1;stop-color:#000000"
       id="rect20448"
       width="16"
       height="156"
       x="120"
       y="49"
       ry="0.62499958" /><path
       style="fill:#ffffff;fill-opacity:1;stroke:#000000;stroke-width:4.243;stroke-linecap:round;stroke-linejoin:round;stroke-dasharray:none;stroke-opacity:1"
       d="M 128,10 10,128 128,246 246,128 Z"
       id="path5056"
       sodipodi:nodetypes="ccccc" /><path
       id="path1864-7-4"
       style="mix-blend-mode:normal;fill:#000000;fill-opacity:1;stroke:#000000;stroke-width:4.243;stroke-linecap:round;stroke-linejoin:round;stroke-dasharray:none;stroke-opacity:1;filter:url(#filter24639);opacity:0.35"
       d="M 130,12 12,130 130,248 248,130 Z m -7.375,39 h 14.75 c 0.34625,0 0.625,0.278751 0.625,0.625 V 70.96875 C 148.27751,73.09147 152,78 152,78 l 3,-6 h 9 l 10,38 -15,4 c -2.33362,-7.00084 -10.12825,-18.205153 -21,-22.851562 v 24.367182 c 0.6737,0.1616 1.29498,0.32168 2,0.48438 25.99994,5.99998 39,20.00004 39,36 0,15.79965 -14.63525,34.51214 -41,34.97852 V 206.375 c 0,0.34625 -0.27875,0.625 -0.625,0.625 h -14.75 C 122.27875,207 122,206.72125 122,206.375 V 185.05273 C 110.00396,181.89625 103,176 103,176 l -4,10 h -9 l -8,-44 16,-4 c 3.57239,10.59661 12.35893,23.29941 24,28.54492 V 138.25977 C 121.65557,138.1724 121.35197,138.088 121,138 95.813685,131.70343 84,122.99996 84,103 84,86.287639 96.938945,72.169856 122,70.234375 V 51.625 C 122,51.278751 122.27875,51 122.625,51 Z M 122,89.269531 C 111.91827,90.231664 109,93.749509 109,98 c 0,4.32331 1.66268,8.41914 13,12.7793 z m 16,53.740239 v 25.75585 c 9.77838,-0.94732 15,-4.86369 15,-11.76562 0,-5.22278 -2.23955,-9.3328 -15,-13.99023 z M 30,149 9,170 l 80,80 21,-21 z m 200,0 -80,80 21,21 80,-80 z" /><path
       id="path1864-7"
       style="fill:#6ad636;fill-opacity:1;stroke:url(#linearGradient4450);stroke-width:4.243;stroke-linecap:round;stroke-linejoin:round;stroke-dasharray:none;stroke-opacity:1"
       d="m 229,148 20,20 -80,80 -20,-20 M 27,148 7,168 l 80,80 20,-20"
       sodipodi:nodetypes="cccccccc" /><path
       id="path20394-8"
       style="fill:url(#linearGradient21523);fill-opacity:1;fill-rule:evenodd;stroke:#000000;stroke-width:2.121;stroke-linecap:round;stroke-linejoin:round;stroke-dasharray:none;stroke-opacity:1"
       d="M 120.625,49 C 120.27875,49 120,49.278751 120,49.625 V 68.234375 C 94.93892,70.169858 82,84.287622 82,101 c 0,19.99998 11.81366,28.70342 37,35 0.35197,0.088 0.65557,0.1724 1,0.25977 v 28.28515 C 108.35892,159.2994 99.57239,146.59662 96,136 l -16,4 8,44 h 9 l 4,-10 c 0,0 7.00395,5.89624 19,9.05273 V 204.375 c 0,0.34625 0.27875,0.625 0.625,0.625 h 14.75 c 0.34625,0 0.625,-0.27875 0.625,-0.625 v -19.39648 c 26.36478,-0.46638 41,-19.17885 41,-34.97852 0,-15.99998 -13.00003,-30.00001 -39,-36 -0.70502,-0.1627 -1.3263,-0.32278 -2,-0.48438 V 89.148438 C 146.87176,93.794852 154.66638,104.99915 157,112 l 15,-4 -10,-38 h -9 l -3,6 c 0,0 -3.72248,-4.908528 -14,-7.03125 V 49.625 C 136,49.278751 135.72125,49 135.375,49 Z M 120,87.269531 V 108.7793 C 108.66267,104.41914 107,100.32331 107,96 c 0,-4.250495 2.91826,-7.768335 13,-8.730469 z m 16,53.740239 c 12.76046,4.65744 15,8.76744 15,13.99023 0,6.90194 -5.22161,10.81829 -15,11.76562 z M 128,10 10,128 128,246 246,128 Z" /><path
       id="path6622"
       style="fill:none;stroke:#000000;stroke-width:4.243;stroke-linecap:square;stroke-linejoin:miter;stroke-opacity:1;stroke-dasharray:none"
       d="m 62,199 9,9 m -6,6 -9,-9 10,-10 9,9 m -33,-13 10,-10 8,8 -6,6 -8,-8 m 33,41 10,-10 -8,-8 -10,10 m -33,-53 -10,10 8,8 10,-10 z" /><path
       id="path10294"
       style="fill:none;stroke:#000000;stroke-width:4.243;stroke-linecap:butt;stroke-linejoin:miter;stroke-opacity:1;stroke-dasharray:none"
       d="m 213,175 7,7 m 0,3 -6,6 -10,-10 6,-6 m -16,17 11,11 m -17,-6 11,-11 m -20,21 11,11 m -17,-6 11,-11" /><path
       style="fill:none;fill-opacity:1;stroke:url(#linearGradient3244);stroke-width:4.243;stroke-linecap:round;stroke-linejoin:round;stroke-dasharray:none;stroke-opacity:1"
       d="M 128,10 10,128 128,246 246,128 Z"
       id="path5056-0"
       sodipodi:nodetypes="ccccc" /></g></svg>
